<svg width="32" height="32" viewBox="0 0 32 32" fill="none" xmlns="http://www.w3.org/2000/svg">
  <!-- 现代化背景圆形 -->
  <circle cx="16" cy="16" r="15" fill="#ffffff" stroke="#e5e7eb" stroke-width="1"/>
  
  <!-- 猫咪头部 -->
  <ellipse cx="16" cy="18" rx="8" ry="7" fill="#d1d5db"/>
  
  <!-- 猫耳朵 -->
  <ellipse cx="11" cy="12" rx="2" ry="3" fill="#d1d5db"/>
  <ellipse cx="21" cy="12" rx="2" ry="3" fill="#d1d5db"/>
  <ellipse cx="11" cy="12" rx="1" ry="2" fill="#e5e7eb"/>
  <ellipse cx="21" cy="12" rx="1" ry="2" fill="#e5e7eb"/>
  
  <!-- 猫眼睛 -->
  <ellipse cx="13" cy="17" rx="1.5" ry="2" fill="#3b82f6"/>
  <ellipse cx="19" cy="17" rx="1.5" ry="2" fill="#3b82f6"/>
  <ellipse cx="13" cy="16.5" rx="0.5" ry="1" fill="#60a5fa"/>
  <ellipse cx="19" cy="16.5" rx="0.5" ry="1" fill="#60a5fa"/>
  
  <!-- 猫鼻子 -->
  <ellipse cx="16" cy="19" rx="0.8" ry="0.6" fill="#f59e0b"/>
  
  <!-- 猫嘴巴 -->
  <path d="M16 20 Q14 21 12 20" stroke="#9ca3af" stroke-width="1" fill="none"/>
  <path d="M16 20 Q18 21 20 20" stroke="#9ca3af" stroke-width="1" fill="none"/>
  
  <!-- 现代化装饰点 -->
  <circle cx="8" cy="8" r="1" fill="#3b82f6" opacity="0.3"/>
  <circle cx="24" cy="8" r="1" fill="#3b82f6" opacity="0.3"/>
  <circle cx="8" cy="24" r="1" fill="#3b82f6" opacity="0.3"/>
  <circle cx="24" cy="24" r="1" fill="#3b82f6" opacity="0.3"/>
</svg>